<?xml version="1.0" encoding="iso-8859-1"?>
<!-- Generator: Adobe Illustrator 19.0.0, SVG Export Plug-In . SVG Version: 6.00 Build 0)  -->
<svg version="1.1" id="Capa_1" xmlns="http://www.w3.org/2000/svg" xmlns:xlink="http://www.w3.org/1999/xlink" x="0px" y="0px"
	 viewBox="0 0 512 512" style="enable-background:new 0 0 512 512;" xml:space="preserve">
<path style="fill:#3C3A41;" d="M512,45v256l-30,30H30L0,301V45C0,20.099,20.099,0,45,0h422C491.901,0,512,20.099,512,45z"/>
<path style="fill:#2B292C;" d="M512,45v256l-30,30H256V0h211C491.901,0,512,20.099,512,45z"/>
<path style="fill:#CAE8F9;" d="M482,45v286H30V45c0-8.401,6.599-15,15-15h422C475.401,30,482,36.599,482,45z"/>
<path style="fill:#B7E0F6;" d="M482,45v286H256V30h211C475.401,30,482,36.599,482,45z"/>
<path style="fill:#FD003A;" d="M166,90c-8.291,0-15,6.709-15,15v45h-30v-45c0-8.291-6.709-15-15-15s-15,6.709-15,15v60
	c0,8.291,6.709,15,15,15h45v46c0,8.291,6.709,15,15,15s15-6.709,15-15V105C181,96.709,174.291,90,166,90z"/>
<path style="fill:#E50027;" d="M406,90c-8.291,0-15,6.709-15,15v45h-30v-45c0-8.291-6.709-15-15-15s-15,6.709-15,15v60
	c0,8.291,6.709,15,15,15h45v46c0,8.291,6.709,15,15,15s15-6.709,15-15V105C421,96.709,414.291,90,406,90z"/>
<path style="fill:#FD003A;" d="M286,90h-60c-8.401,0-15,6.599-15,15v121c0,8.399,6.599,15,15,15h60c8.401,0,15-6.601,15-15V105
	C301,96.599,294.401,90,286,90z M271,211h-30v-91h30V211z"/>
<rect x="181" y="361" style="fill:#3C3A41;" width="150" height="90"/>
<rect x="256" y="361" style="fill:#2B292C;" width="75" height="90"/>
<path style="fill:#E50027;" d="M301,105v121c0,8.399-6.599,15-15,15h-30v-30h15v-91h-15V90h30C294.401,90,301,96.599,301,105z"/>
<path style="fill:#57555C;" d="M512,301v45c0,24.899-20.099,45-45,45H45c-24.901,0-45-20.101-45-45v-45H512z"/>
<path style="fill:#3C3A41;" d="M512,301v45c0,24.899-20.099,45-45,45H256v-90H512z"/>
<path style="fill:#57555C;" d="M346,421H166c-24.901,0-45,20.099-45,45v31c0,8.399,6.599,15,15,15h240c8.401,0,15-6.601,15-15v-31
	C391,441.099,370.901,421,346,421z"/>
<path style="fill:#3C3A41;" d="M391,466v31c0,8.399-6.599,15-15,15H256v-91h90C370.901,421,391,441.099,391,466z"/>
<g>
</g>
<g>
</g>
<g>
</g>
<g>
</g>
<g>
</g>
<g>
</g>
<g>
</g>
<g>
</g>
<g>
</g>
<g>
</g>
<g>
</g>
<g>
</g>
<g>
</g>
<g>
</g>
<g>
</g>
</svg>
