<?xml version="1.0" encoding="iso-8859-1"?>
<!-- Generator: Adobe Illustrator 18.0.0, SVG Export Plug-In . SVG Version: 6.00 Build 0)  -->
<!DOCTYPE svg PUBLIC "-//W3C//DTD SVG 1.1//EN" "http://www.w3.org/Graphics/SVG/1.1/DTD/svg11.dtd">
<svg version="1.1" id="Capa_1" xmlns="http://www.w3.org/2000/svg" xmlns:xlink="http://www.w3.org/1999/xlink" x="0px" y="0px"
	 viewBox="0 0 494.712 494.712" style="enable-background:new 0 0 494.712 494.712;" xml:space="preserve">
<g id="XMLID_47_">
	<path id="XMLID_54_" d="M245.025,77.976h-90.195c4.125,21.171,22.71,37.16,45.094,37.16
		C222.297,115.136,240.9,99.146,245.025,77.976z"/>
	<rect id="XMLID_53_" x="184.227" y="126.426" width="31.401" height="63.92"/>
	<path id="XMLID_52_" d="M154.395,65.597h91.065c6.835,0,12.375-5.544,12.375-12.378c0-6.831-5.54-12.375-12.375-12.375h-2.819
		C236.383,20.42,233.324,0,210.37,0h-20.883c-22.194,0-25.37,18.352-32.271,40.844h-2.82c-6.834,0-12.374,5.544-12.374,12.375
		C142.021,60.053,147.561,65.597,154.395,65.597z"/>
	<g id="XMLID_48_">
		<path id="XMLID_49_" d="M415.674,57.353v-30.45c0-4.755-4.026-8.56-8.833-8.233c-4.375,0.299-7.674,4.134-7.674,8.519v26.877
			h-16.5V26.902c0-4.563-3.708-8.253-8.256-8.253c-4.579,0-8.25,3.689-8.25,8.253v27.162h-16.506V26.902
			c0-4.563-3.703-8.253-8.25-8.253c-4.579,0-8.25,3.689-8.25,8.253v27.162h-16.506V26.902c0-4.563-3.708-8.253-8.25-8.253
			c-4.58,0-8.25,3.689-8.25,8.253v27.162h-16.507V40.726c0-2.425,0-3.229,0-3.222V26.902c0-4.563-3.708-8.253-8.251-8.253
			c-4.787,0-8.256,3.07-8.256,10.37v28.333c-2.513,2.265-4.126,5.456-4.126,9.091c0,7.214,6.596,12.378,12.382,12.378h53.639
			v128.142l-26.597-6.117l-43.716-63.927c-4.49-6.566-11.932-10.493-19.887-10.493h-6.702v135.438h23.598v31.644
			c0,11.932,0,15.826,0,15.74v29.824h-47.19v-25.107h-17.218v25.107h-47.189v-77.208h23.598V126.426h-5.739
			c-9.432,0-17.997,5.504-21.915,14.084l-63.38,138.777c-4.511,9.881-0.16,21.542,9.739,26.053c9.832,4.5,21.533,0.196,26.044-9.724
			l15.151-33.154v76.61c0,9.115,7.38,16.508,16.501,16.508v114.999c0,13.214,10.814,24.364,24.025,24.129
			c12.822-0.229,23.164-10.713,23.164-23.601V355.58c3.163,0,6.093-0.889,8.606-2.418c2.519,1.529,5.449,2.418,8.612,2.418v115.527
			c0,12.889,10.343,23.373,23.166,23.601c13.212,0.234,24.024-10.916,24.024-24.129V355.58c9.121,0,16.501-7.393,16.501-16.508
			v-77.208c0-9.114-7.389-16.504-16.503-16.504h-0.046v-43.249l18.615,27.271c2.789,4.085,7.024,6.968,11.83,8.075l42.906,9.862
			v204.168c0,6.811,5.327,12.656,12.138,12.784c6.943,0.13,12.619-5.464,12.619-12.377V245.208
			c3.267-2.667,5.767-6.374,6.767-10.815c1.74-7.503-1.227-14.843-6.767-19.428V78.821h53.279c6.148,0,11.602-4.341,12.576-10.411
			C420.355,63.965,418.594,60.018,415.674,57.353z M133.555,249.445l10.622-23.263v19.178h-0.049
			C140.034,245.36,136.424,246.998,133.555,249.445z"/>
	</g>
</g>
<g>
</g>
<g>
</g>
<g>
</g>
<g>
</g>
<g>
</g>
<g>
</g>
<g>
</g>
<g>
</g>
<g>
</g>
<g>
</g>
<g>
</g>
<g>
</g>
<g>
</g>
<g>
</g>
<g>
</g>
</svg>
