<?xml version='1.0' encoding='iso-8859-1'?>
<!DOCTYPE svg PUBLIC '-//W3C//DTD SVG 1.1//EN' 'http://www.w3.org/Graphics/SVG/1.1/DTD/svg11.dtd'>
<svg version="1.1" xmlns="http://www.w3.org/2000/svg" viewBox="0 0 439.94 439.94" xmlns:xlink="http://www.w3.org/1999/xlink" enable-background="new 0 0 439.94 439.94">
  <g>
    <path d="m377.7,349.381c-2.63,0-5.21,1.07-7.07,2.93-1.86,1.87-2.93,4.44-2.93,7.08 0,2.63 1.07,5.2 2.93,7.07 1.86,1.86 4.44,2.93 7.07,2.93s5.21-1.07 7.07-2.93c1.87-1.87 2.93-4.44 2.93-7.07s-1.06-5.21-2.93-7.08c-1.86-1.86-4.44-2.93-7.07-2.93z"/>
    <path d="m377.7,397.801c-2.63,0-5.21,1.07-7.07,2.93-1.86,1.86-2.93,4.44-2.93,7.07 0,2.63 1.07,5.21 2.93,7.07s4.44,2.93 7.07,2.93 5.21-1.07 7.07-2.93c1.87-1.86 2.93-4.44 2.93-7.07 0-2.63-1.06-5.21-2.93-7.07-1.86-1.86-4.44-2.93-7.07-2.93z"/>
    <path d="m343.361,375.661c-2.63,0-5.21,1.06-7.07,2.93-1.86,1.85-2.93,4.43-2.93,7.07 0,2.63 1.07,5.21 2.93,7.07 1.86,1.86 4.44,2.93 7.07,2.93s5.21-1.07 7.07-2.93c1.86-1.86 2.93-4.44 2.93-7.07 0-2.64-1.07-5.21-2.93-7.07-1.86-1.87-4.44-2.93-7.07-2.93z"/>
    <path d="m343.361,419.94c-2.63,0-5.21,1.07-7.07,2.93-1.86,1.86-2.93,4.44-2.93,7.07 0,2.64 1.07,5.21 2.93,7.07 1.86,1.87 4.44,2.93 7.07,2.93s5.21-1.06 7.07-2.93c1.86-1.86 2.93-4.43 2.93-7.07 0-2.63-1.07-5.21-2.93-7.07-1.86-1.859-4.44-2.93-7.07-2.93z"/>
    <path d="m395.073,230.989l-37.685-37.686c-0.023-0.03-0.042-0.062-0.065-0.092l-132.421-170.011c-10.597-13.605-26.546-22.02-43.759-23.085-17.216-1.066-34.078,5.317-46.273,17.511l-82.082,82.083c-12.194,12.195-18.577,29.06-17.511,46.272s9.479,33.162 23.085,43.759l170.012,132.421c0.031,0.024 0.063,0.043 0.094,0.067l37.683,37.683c6.471,6.47 14.97,9.706 23.47,9.706s16.999-3.235 23.47-9.706l81.984-81.983c12.939-12.942 12.939-33.998-0.002-46.939zm-217.647-210.989c0.825,0 1.653,0.025 2.481,0.077 11.492,0.711 22.141,6.329 29.216,15.413l126.992,163.042-20.525,20.525-136.557-151.022c-11.954-13.22-25.704-23.278-38.032-28.255l8.012-8.012c7.554-7.554 17.793-11.768 28.413-11.768zm-52.847,36.202c0,0-0.001,0.001 0,0l0,0zm-.218,.218c4.056-1.367 22.019,5.325 39.837,25.03l137.233,151.768-33.052,33.052-151.768-137.234c-19.705-17.817-26.394-35.783-25.03-39.836l32.78-32.78zm-32.995,32.995c-0.001,0.001-0.001,0.001-0.002,0.002l.002-.002zm-36.127,55.33c-0.711-11.492 3.55-22.753 11.691-30.895l8.012-8.012c4.977,12.329 15.035,26.078 28.255,38.032l151.022,136.558-20.525,20.525-163.042-126.991c-9.084-7.076-14.702-17.725-15.413-29.217zm325.691,119.04l-81.983,81.983c-5.143,5.144-13.512,5.144-18.654,0l-31.564-31.564 100.638-100.639 31.564,31.565c5.143,5.144 5.143,13.512-0.001,18.655z"/>
  </g>
</svg>
